<svg id="Layer_1" data-name="Layer 1" xmlns="http://www.w3.org/2000/svg" viewBox="0 0 140 14"><defs><style>.cls-1{fill:#5fd0df;}</style></defs><title>made-by</title><g id="Layer_2" data-name="Layer 2"><g id="Layer_1-2" data-name="Layer 1-2"><path class="cls-1" d="M131.71.86a8,8,0,0,0-2.68,6,7.34,7.34,0,0,0,.05.81,8.74,8.74,0,0,1,5.26,0,7.34,7.34,0,0,0,0-.81A8,8,0,0,0,131.71.86Z" transform="translate(-1.12 -0.86)"/><path class="cls-1" d="M112.7,4.76h1.47l1.51,5.07c.11.38.17.78.18.78h0a7.38,7.38,0,0,1,.19-.78l1.57-5.06h1.27l1.56,5.06c.12.38.2.78.2.78h0a7.25,7.25,0,0,1,.17-.78l1.52-5.07h1.46L121.53,12H120l-1.51-4.64c-.11-.38-.2-.79-.2-.79h0s-.09.41-.21.79L116.58,12H115Z" transform="translate(-1.12 -0.86)"/><path class="cls-1" d="M90.4,4.59A3.08,3.08,0,0,1,93.53,8c0,.18,0,.6,0,.6H88.21A2.37,2.37,0,0,0,90.7,11a3.43,3.43,0,0,0,2.14-.85l.57,1a4.34,4.34,0,0,1-2.8,1,3.69,3.69,0,0,1-3.83-3.79A3.54,3.54,0,0,1,90.4,4.59Zm1.71,2.94a1.7,1.7,0,0,0-1.74-1.84,2.07,2.07,0,0,0-2.12,1.84Z" transform="translate(-1.12 -0.86)"/><path class="cls-1" d="M83.52,1.9h1.39V9.78c0,.87.34,1,.77,1l.25,0V12l-.46,0c-.79,0-2-.21-2-2Z" transform="translate(-1.12 -0.86)"/><path class="cls-1" d="M52.93,10.12A3.12,3.12,0,0,0,55,11c.6,0,1.2-.31,1.2-.9,0-1.33-3.72-1.05-3.72-3.42,0-1.31,1.17-2,2.62-2a3.24,3.24,0,0,1,2.33.8l-.56,1a2.65,2.65,0,0,0-1.79-.64c-.6,0-1.18.25-1.18.88,0,1.3,3.71,1,3.71,3.39,0,1.2-1,2.11-2.61,2.11a3.88,3.88,0,0,1-2.75-1.06Z" transform="translate(-1.12 -0.86)"/><path class="cls-1" d="M62.49,4.76h1.34v1a4.53,4.53,0,0,1,0,.52h0a2.84,2.84,0,0,1,2.49-1.65A2,2,0,0,1,68.5,6.23h0A2.9,2.9,0,0,1,71.1,4.59c1.63,0,2.39.93,2.39,2.77V12H72.1V7.66c0-1-.2-1.82-1.29-1.82a2.26,2.26,0,0,0-2,1.85,4.19,4.19,0,0,0-.09,1V12h-1.4V7.66c0-.94-.14-1.82-1.25-1.82A2.3,2.3,0,0,0,64,7.75a4.22,4.22,0,0,0-.08.94V12H62.49Z" transform="translate(-1.12 -0.86)"/><path class="cls-1" d="M75.21,4.76h1.27v.61a4.71,4.71,0,0,1,0,.53h0a2.61,2.61,0,0,1,2.43-1.32c2,0,3.18,1.55,3.18,3.79s-1.39,3.8-3.28,3.8A2.51,2.51,0,0,1,76.6,11h0a5.85,5.85,0,0,1,0,.63v3.24H75.21ZM78.6,11c1.14,0,2.09-1,2.09-2.59s-.85-2.59-2-2.59-2.09.76-2.09,2.6c0,1.29.72,2.58,2,2.58Z" transform="translate(-1.12 -0.86)"/><path class="cls-1" d="M59.22,4.76h1.39V12H59.22Z" transform="translate(-1.12 -0.86)"/><circle class="cls-1" cx="58.8" cy="1.9" r="0.86"/><path class="cls-1" d="M108.85,4.59A3.07,3.07,0,0,1,112,8c0,.18,0,.6,0,.6h-5.28A2.37,2.37,0,0,0,109.15,11a3.44,3.44,0,0,0,2.15-.85l.57,1a4.36,4.36,0,0,1-2.81,1,3.69,3.69,0,0,1-3.83-3.79A3.54,3.54,0,0,1,108.85,4.59Zm1.72,2.94a1.71,1.71,0,0,0-1.75-1.84,2.07,2.07,0,0,0-2.11,1.84Z" transform="translate(-1.12 -0.86)"/><path class="cls-1" d="M94.25,4.76h1.47l1.76,4.89a9.76,9.76,0,0,1,.24,1h0s.12-.59.26-1l1.76-4.89h1.46L98.55,12H97Z" transform="translate(-1.12 -0.86)"/><path class="cls-1" d="M102.54,4.76h1.38V12h-1.38Z" transform="translate(-1.12 -0.86)"/><circle class="cls-1" cx="102.11" cy="1.9" r="0.86"/><path class="cls-1" d="M140.46,12.12a.65.65,0,1,1-.63.66h0a.64.64,0,0,1,.62-.65Zm0,1.17a.53.53,0,0,0,.55-.5.54.54,0,0,0-.5-.55.53.53,0,0,0-.55.5v0a.5.5,0,0,0,.49.52Zm-.22-.86h.26a.2.2,0,0,1,.21.18v0a.18.18,0,0,1-.13.18h0l0,0,.12.24h-.13l-.13-.25h-.11v.25h-.12Zm.23.32a.1.1,0,0,0,.11-.1v0a.09.09,0,0,0-.09-.1h-.13v.22Z" transform="translate(-1.12 -0.86)"/><path class="cls-1" d="M135,8.72a8.77,8.77,0,0,1-2.63,4.6,8,8,0,0,0,7.24,1.13A8,8,0,0,0,135,8.72Z" transform="translate(-1.12 -0.86)"/><path class="cls-1" d="M123.86,14.45a8,8,0,0,0,7.23-1.13,8.73,8.73,0,0,1-2.63-4.6A8,8,0,0,0,123.86,14.45Z" transform="translate(-1.12 -0.86)"/><path class="cls-1" d="M129.35,8.52a8,8,0,0,0,2.36,4.12,7.82,7.82,0,0,0,2.36-4.12A7.76,7.76,0,0,0,129.35,8.52Z" transform="translate(-1.12 -0.86)"/><path class="cls-1" d="M1.18,11.12H2.1V7.2A.22.22,0,0,0,1.9,7H1.12V6.08H2.45q.75,0,.75.66V7a1.32,1.32,0,0,1,0,.34h0A2.43,2.43,0,0,1,5.29,6,1.57,1.57,0,0,1,7,7.34H7A2.39,2.39,0,0,1,9.16,6c1.31,0,1.93.75,1.93,2.26v2.91H12V12H10V8.45C10,7.62,9.8,7,8.91,7,7.8,7,7.17,8.1,7.17,9.27v1.85h.92V12H6V8.45C6,7.68,5.92,7,5,7,3.89,7,3.23,8.16,3.23,9.32v1.8h.94V12h-3Z" transform="translate(-1.12 -0.86)"/><path class="cls-1" d="M16.07,8.36h.38V8.14a1.13,1.13,0,0,0-1.27-1.27,3.15,3.15,0,0,0-1.69.57L13,6.64a3.77,3.77,0,0,1,2.24-.7,2,2,0,0,1,2.3,2.27v2.65a.23.23,0,0,0,.2.25h.66V12H17.25c-.52,0-.73-.26-.73-.64v-.08a1.61,1.61,0,0,1,0-.39h0a2.14,2.14,0,0,1-1.95,1.25,1.8,1.8,0,0,1-2-1.79C12.63,8.49,15.09,8.36,16.07,8.36Zm-1.24,2.89a1.81,1.81,0,0,0,1.63-1.91V9.1h-.29c-.54,0-2.4,0-2.4,1.15a1,1,0,0,0,1.06,1Z" transform="translate(-1.12 -0.86)"/><path class="cls-1" d="M21.6,5.94a2,2,0,0,1,1.83,1h0a3.15,3.15,0,0,1,0-.44V4.62h-1V3.74h2.12v7.12a.22.22,0,0,0,.19.25h.66V12H24.22c-.53,0-.74-.26-.74-.64v-.08a1.12,1.12,0,0,1,0-.32h0a2.09,2.09,0,0,1-2,1.18c-1.59,0-2.59-1.27-2.59-3.1S20,5.94,21.6,5.94Zm.14,5.21c.88,0,1.71-.63,1.71-2.1,0-1.09-.55-2.12-1.67-2.12-1,0-1.71.76-1.71,2.11s.69,2.11,1.67,2.11Z" transform="translate(-1.12 -0.86)"/><path class="cls-1" d="M28.87,5.94a2.51,2.51,0,0,1,2.56,2.77c0,.15,0,.43,0,.43H27.07a2,2,0,0,0,2.05,2,2.87,2.87,0,0,0,1.76-.66l.47.83a3.64,3.64,0,0,1-2.3.82A3,3,0,0,1,25.92,9,2.9,2.9,0,0,1,28.87,5.94Zm1.4,2.48a1.45,1.45,0,0,0-1.42-1.58,1.75,1.75,0,0,0-1.73,1.58Z" transform="translate(-1.12 -0.86)"/><path class="cls-1" d="M35.84,4.62h-1V3.74H37V6.48a4.15,4.15,0,0,1,0,.49h0a2.15,2.15,0,0,1,1.91-1c1.6,0,2.6,1.26,2.6,3.09s-1.13,3.1-2.7,3.1a2.07,2.07,0,0,1-1.87-1.07h0a3.59,3.59,0,0,1,0,.47V12H35.84Zm2.78,6.53c.93,0,1.7-.76,1.7-2.11s-.69-2.11-1.67-2.11-1.71.62-1.71,2.13c0,1,.55,2.09,1.68,2.09Z" transform="translate(-1.12 -0.86)"/><path class="cls-1" d="M43.31,13.5a1.21,1.21,0,0,0,1.08-.82l.25-.58L42.57,7h-.75V6.08h2.7V7h-.78l1.32,3.52a2.19,2.19,0,0,1,.1.51h0a2.73,2.73,0,0,1,.14-.51L46.65,7h-.76V6.08h2.62V7h-.74l-2.34,6a2.2,2.2,0,0,1-2.08,1.52,2.31,2.31,0,0,1-1.27-.38l.39-.85A1.39,1.39,0,0,0,43.31,13.5Z" transform="translate(-1.12 -0.86)"/></g></g></svg>